<?xml version="1.0" standalone="no"?><!DOCTYPE svg PUBLIC "-//W3C//DTD SVG 1.1//EN" "http://www.w3.org/Graphics/SVG/1.1/DTD/svg11.dtd"><svg t="1698330798795" class="icon" viewBox="0 0 1024 1024" version="1.1" xmlns="http://www.w3.org/2000/svg" p-id="6644" xmlns:xlink="http://www.w3.org/1999/xlink" width="200" height="200"><path d="M53.312 512a458.688 458.688 0 1 0 917.376 0A458.688 458.688 0 0 0 53.312 512z m501.632 170.688a42.688 42.688 0 0 1-85.376 0v-192h-25.344c-7.488 0-16.64 0-24.192-0.96H419.84c-5.376-0.64-29.952-3.776-41.664-27.904s1.152-45.44 3.968-50.112l0.064-0.192c3.968-6.528 9.664-13.824 14.4-19.84l0.96-1.28c12.608-16 28.928-36.672 45.12-53.376 8.128-8.32 17.408-16.896 27.264-23.68 8.704-6.016 23.68-14.72 42.048-14.72 18.368 0 33.28 8.704 42.048 14.72 9.856 6.784 19.2 15.36 27.264 23.68 16.192 16.704 32.512 37.376 45.056 53.376l1.024 1.28c4.736 6.016 10.432 13.312 14.4 19.84l0.064 0.192c2.816 4.608 15.68 25.984 3.968 50.112s-36.288 27.2-41.664 27.904h-0.192c-7.488 0.96-16.704 0.96-24.192 0.96H554.88v192z" fill="#333333" p-id="6645"></path></svg>